<svg width="137" height="49" viewBox="0 0 137 49" fill="none" xmlns="http://www.w3.org/2000/svg">
<g filter="url(#filter0_d_1771_224)">
<rect x="2" y="1" width="129" height="41" rx="5" fill="#EDB340"/>
<rect x="2.5" y="1.5" width="128" height="40" rx="4.5" stroke="#06202D"/>
</g>
<path d="M49.8 32V14.816H57.456C59.2 14.816 60.552 15.24 61.512 16.088C62.552 16.984 63.072 18.072 63.072 19.352C63.072 20.088 62.888 20.728 62.52 21.272C62.168 21.8 61.568 22.336 60.72 22.88C62.608 24 63.552 25.392 63.552 27.056C63.552 28.56 62.984 29.792 61.848 30.752C60.856 31.584 59.416 32 57.528 32H49.8ZM53.328 17.768V21.656H57.192C58.84 21.656 59.664 21.008 59.664 19.712C59.664 18.416 58.84 17.768 57.192 17.768H53.328ZM53.328 24.608V29.048H57.552C59.296 29.048 60.168 28.312 60.168 26.84C60.168 25.352 59.296 24.608 57.552 24.608H53.328ZM76.5424 28.544H70.1104L68.9584 32H65.3584L71.4544 14.816H75.3664L81.3184 32H77.6704L76.5424 28.544ZM75.5824 25.592L73.3504 18.872L71.0944 25.592H75.5824ZM97.806 20.552H94.446C93.982 18.568 92.758 17.576 90.774 17.576C89.286 17.576 88.142 18.168 87.342 19.352C86.654 20.392 86.31 21.776 86.31 23.504C86.31 25.456 86.742 26.944 87.606 27.968C88.358 28.848 89.374 29.288 90.654 29.288C91.758 29.288 92.638 29 93.294 28.424C93.95 27.848 94.334 27.024 94.446 25.952H97.878C97.766 28.032 96.966 29.64 95.478 30.776C94.198 31.768 92.558 32.264 90.558 32.264C87.998 32.264 86.014 31.368 84.606 29.576C83.39 28.024 82.782 25.976 82.782 23.432C82.782 20.52 83.582 18.264 85.182 16.664C86.574 15.256 88.39 14.552 90.63 14.552C93.286 14.552 95.294 15.44 96.654 17.216C97.326 18.096 97.71 19.208 97.806 20.552ZM104.094 26.264V32H100.566V14.816H104.094V22.376L110.814 14.816H114.99L108.126 22.208L115.71 32H111.486L105.87 24.416L104.094 26.264Z" fill="black"/>
<path fill-rule="evenodd" clip-rule="evenodd" d="M19.6953 17.9432L23.8167 22.1761L23.8725 19.3728C26.496 19.3728 33.1233 18.6704 31.9628 23.5512C31.3259 26.2297 29.1412 26.2417 25.9331 26.2417C25.3891 27.0538 25.2461 26.6019 25.2461 27.8444C25.2461 29.3552 27.5729 28.9893 28.9096 28.9893C36.8085 28.9893 36.8085 16.6253 28.9096 16.6253H23.8725V13.8777L19.6953 17.9432Z" fill="black"/>
<defs>
<filter id="filter0_d_1771_224" x="0" y="0" width="137" height="49" filterUnits="userSpaceOnUse" color-interpolation-filters="sRGB">
<feFlood flood-opacity="0" result="BackgroundImageFix"/>
<feColorMatrix in="SourceAlpha" type="matrix" values="0 0 0 0 0 0 0 0 0 0 0 0 0 0 0 0 0 0 127 0" result="hardAlpha"/>
<feOffset dx="2" dy="3"/>
<feGaussianBlur stdDeviation="2"/>
<feComposite in2="hardAlpha" operator="out"/>
<feColorMatrix type="matrix" values="0 0 0 0 0 0 0 0 0 0 0 0 0 0 0 0 0 0 0.25 0"/>
<feBlend mode="normal" in2="BackgroundImageFix" result="effect1_dropShadow_1771_224"/>
<feBlend mode="normal" in="SourceGraphic" in2="effect1_dropShadow_1771_224" result="shape"/>
</filter>
</defs>
</svg>
