<svg width="137" height="49" viewBox="0 0 137 49" fill="none" xmlns="http://www.w3.org/2000/svg">
<g filter="url(#filter0_d_1771_224)">
<rect x="4" y="2" width="129" height="41" rx="5" fill="#F5F5F5"/>
<rect x="4.5" y="2.5" width="128" height="40" rx="4.5" stroke="#06202D"/>
</g>
<path d="M51.8 33V15.816H59.456C61.2 15.816 62.552 16.24 63.512 17.088C64.552 17.984 65.072 19.072 65.072 20.352C65.072 21.088 64.888 21.728 64.52 22.272C64.168 22.8 63.568 23.336 62.72 23.88C64.608 25 65.552 26.392 65.552 28.056C65.552 29.56 64.984 30.792 63.848 31.752C62.856 32.584 61.416 33 59.528 33H51.8ZM55.328 18.768V22.656H59.192C60.84 22.656 61.664 22.008 61.664 20.712C61.664 19.416 60.84 18.768 59.192 18.768H55.328ZM55.328 25.608V30.048H59.552C61.296 30.048 62.168 29.312 62.168 27.84C62.168 26.352 61.296 25.608 59.552 25.608H55.328ZM78.5424 29.544H72.1104L70.9584 33H67.3584L73.4544 15.816H77.3664L83.3184 33H79.6704L78.5424 29.544ZM77.5824 26.592L75.3504 19.872L73.0944 26.592H77.5824ZM99.806 21.552H96.446C95.982 19.568 94.758 18.576 92.774 18.576C91.286 18.576 90.142 19.168 89.342 20.352C88.654 21.392 88.31 22.776 88.31 24.504C88.31 26.456 88.742 27.944 89.606 28.968C90.358 29.848 91.374 30.288 92.654 30.288C93.758 30.288 94.638 30 95.294 29.424C95.95 28.848 96.334 28.024 96.446 26.952H99.878C99.766 29.032 98.966 30.64 97.478 31.776C96.198 32.768 94.558 33.264 92.558 33.264C89.998 33.264 88.014 32.368 86.606 30.576C85.39 29.024 84.782 26.976 84.782 24.432C84.782 21.52 85.582 19.264 87.182 17.664C88.574 16.256 90.39 15.552 92.63 15.552C95.286 15.552 97.294 16.44 98.654 18.216C99.326 19.096 99.71 20.208 99.806 21.552ZM106.094 27.264V33H102.566V15.816H106.094V23.376L112.814 15.816H116.99L110.126 23.208L117.71 33H113.486L107.87 25.416L106.094 27.264Z" fill="black"/>
<path fill-rule="evenodd" clip-rule="evenodd" d="M21.6953 18.9432L25.8167 23.1761L25.8725 20.3728C28.496 20.3728 35.1233 19.6704 33.9628 24.5512C33.3259 27.2297 31.1412 27.2417 27.9331 27.2417C27.3891 28.0538 27.2461 27.6019 27.2461 28.8444C27.2461 30.3552 29.5729 29.9893 30.9096 29.9893C38.8085 29.9893 38.8085 17.6253 30.9096 17.6253H25.8725V14.8777L21.6953 18.9432Z" fill="black"/>
<defs>
<filter id="filter0_d_1771_224" x="0" y="0" width="137" height="49" filterUnits="userSpaceOnUse" color-interpolation-filters="sRGB">
<feFlood flood-opacity="0" result="BackgroundImageFix"/>
<feColorMatrix in="SourceAlpha" type="matrix" values="0 0 0 0 0 0 0 0 0 0 0 0 0 0 0 0 0 0 127 0" result="hardAlpha"/>
<feOffset dy="2"/>
<feGaussianBlur stdDeviation="2"/>
<feComposite in2="hardAlpha" operator="out"/>
<feColorMatrix type="matrix" values="0 0 0 0 0 0 0 0 0 0 0 0 0 0 0 0 0 0 0.25 0"/>
<feBlend mode="normal" in2="BackgroundImageFix" result="effect1_dropShadow_1771_224"/>
<feBlend mode="normal" in="SourceGraphic" in2="effect1_dropShadow_1771_224" result="shape"/>
</filter>
</defs>
</svg>
