<?xml version="1.0" encoding="UTF-8"?>
<!DOCTYPE svg PUBLIC "-//W3C//DTD SVG 1.1//EN" "http://www.w3.org/Graphics/SVG/1.1/DTD/svg11.dtd">
<!-- Creator: CorelDRAW -->
<svg xmlns="http://www.w3.org/2000/svg" xml:space="preserve" width="200px" height="200px" version="1.1" style="shape-rendering:geometricPrecision; text-rendering:geometricPrecision; image-rendering:optimizeQuality; fill-rule:evenodd; clip-rule:evenodd"
viewBox="0 0 200 200"
 xmlns:xlink="http://www.w3.org/1999/xlink"
 xmlns:xodm="http://www.corel.com/coreldraw/odm/2003">
 <defs>
  <style type="text/css">
   <![CDATA[
    .str1 {stroke:#292929;stroke-width:8.333;stroke-miterlimit:2.61313}
    .str0 {stroke:#292929;stroke-width:8.333;stroke-linejoin:round;stroke-miterlimit:2.61313}
    .str2 {stroke:#292929;stroke-width:8.333;stroke-linecap:round;stroke-miterlimit:2.61313}
    .fil0 {fill:none}
   ]]>
  </style>
 </defs>
 <g id="Layer_x0020_1">
  <metadata id="CorelCorpID_0Corel-Layer"/>
  <polygon class="fil0 str0" points="66.535,30.629 133.369,30.629 125.015,91.893 76.48,91.893 "/>
  <line class="fil0 str1" x1="100.747" y1="110.989" x2="100.747" y2= "91.893" />
  <polygon class="fil0 str0" points="133.767,111.387 68.922,111.387 68.922,133.665 133.767,133.665 "/>
  <polyline class="fil0 str1" points="93.984,148.383 108.699,148.383 108.699,133.665 "/>
  <line class="fil0 str1" x1="100.852" y1="171.959" x2="101.376" y2= "148.383" />
  <polyline class="fil0 str2" points="67.37,171.959 109.746,171.959 134.334,171.959 "/>
  <path class="fil0 str1" d="M160.759 86.42c0.456,22.807 -8.542,35.363 -26.992,37.667"/>
  <path class="fil0 str1" d="M40.692 85.896c0.028,24.459 9.439,36.669 28.23,36.629"/>
  <line class="fil0 str2" x1="33.436" y1="86.066" x2="50.269" y2= "86.066" />
  <line class="fil0 str2" x1="151.036" y1="86.294" x2="167.869" y2= "86.294" />
  <polyline class="fil0 str0" points="93.984,133.665 93.984,148.383 101.376,148.383 108.699,148.383 108.699,133.665 "/>
 </g>
</svg>
