<svg width="69" height="65" viewBox="0 0 69 65" fill="none" xmlns="http://www.w3.org/2000/svg">
<path d="M33.216 3.22021L23.1871 24.4124C22.9408 33.3224 22.6707 52.256 23.5597 56.7108C24.4488 61.1656 28.0745 62.0231 29.7762 61.895C36.7804 61.9234 51.8482 61.9077 56.086 61.6179C60.3237 61.328 61.6332 59.0822 61.7582 57.9954L62.5523 51.0916C62.8767 49.9631 64.8546 48.6749 65.409 46.5624C65.9634 44.4499 65.5174 42.2353 65.022 41.4658C63.4474 39.9245 63.0596 37.9368 63.9704 37.07C66.1562 34.9897 66.4806 33.8612 66.4116 29.3841C66.3564 25.8024 62.2443 24.4356 60.3872 24.222L39.5669 24.159C40.0163 21.9437 40.7799 15.982 40.2386 9.85728C39.6973 3.73253 35.3313 2.88059 33.216 3.22021Z" stroke="black" stroke-width="5"/>
<path d="M9.9564 61.6179L16.939 60.96L15.939 53.46L15.939 45.46L15.939 27.7484C13.6977 27.4906 11.3749 27.6006 9.9564 27.7484C8.53792 27.8961 3.66998 29.6934 3.43898 30.5736C3.32818 39.4344 3.21174 57.5955 3.63238 59.3539C4.05302 61.1122 7.1168 61.0573 9.9564 61.6179Z" stroke="black" stroke-width="5"/>
</svg>
